<svg version="1.1" id="Layer_1" xmlns="http://www.w3.org/2000/svg" xmlns:xlink="http://www.w3.org/1999/xlink" x="0px" y="0px"
	 width="100%" viewBox="0 0 225 225" enable-background="new 0 0 225 225" xml:space="preserve">
<path fill="#FEFEFE" opacity="1.000000" stroke="none" 
	d="
M128.000000,226.000000 
	C85.333336,226.000000 43.166672,226.000000 1.000006,226.000000 
	C1.000004,151.000000 1.000004,76.000015 1.000002,1.000016 
	C75.999992,1.000010 150.999985,1.000010 225.999969,1.000005 
	C225.999985,75.999985 225.999985,150.999969 226.000000,225.999969 
	C193.500000,226.000000 161.000000,226.000000 128.000000,226.000000 
M131.061630,180.921860 
	C119.733017,181.036652 108.404404,181.151459 96.457352,181.470108 
	C96.124969,182.022675 95.792587,182.575226 95.516914,183.149567 
	C95.516914,183.149567 95.484970,183.136139 95.133141,184.172501 
	C95.214813,184.528061 95.296494,184.883606 95.669182,185.998978 
	C97.093346,186.623718 98.509087,187.766418 99.943016,187.789719 
	C109.729103,187.948746 119.522217,187.995712 129.304352,187.742493 
	C130.813248,187.703430 132.277435,185.937164 133.957932,184.507858 
	C133.917786,184.345581 133.877625,184.183289 133.982330,183.588806 
	C133.982605,183.244934 133.826431,183.001389 133.294724,182.287872 
	C132.846939,181.931030 132.399139,181.574188 131.061630,180.921860 
M133.979935,194.588028 
	C133.979706,194.244186 133.823318,194.000580 133.294388,193.295761 
	C132.841370,192.949585 132.388351,192.603409 131.049332,191.958206 
	C120.045403,192.008011 109.041466,192.057831 97.370461,192.017456 
	C96.784180,192.638229 96.197899,193.259018 95.260239,194.012177 
	C95.232750,194.360580 95.205261,194.708984 95.113861,195.671310 
	C95.201477,195.857468 95.289093,196.043625 95.665131,196.988510 
	C97.096092,197.612610 98.518639,198.753937 99.959381,198.777390 
	C109.732338,198.936554 119.512329,198.983063 129.281342,198.730209 
	C130.797089,198.690979 132.268356,196.933655 133.957382,195.508453 
	C133.916840,195.345871 133.876312,195.183273 133.979935,194.588028 
M91.137840,115.058777 
	C90.888474,114.092644 90.606125,113.133675 90.394638,112.159325 
	C86.790077,95.552269 96.475845,83.327522 113.455963,83.072563 
	C121.361862,82.953857 128.409424,85.535492 135.154739,89.534897 
	C136.668686,90.432533 139.174591,89.657150 141.223831,89.651978 
	C140.513992,87.747292 140.372589,85.031738 139.001373,84.070488 
	C130.571716,78.161110 121.087746,75.318932 110.739601,76.181496 
	C95.818176,77.425270 84.775436,86.936478 83.105301,99.911430 
	C80.969170,116.506622 89.389748,138.697754 110.500748,143.639130 
	C112.749725,144.165543 114.933281,145.063843 117.065224,145.980301 
	C123.040413,148.548889 126.403374,153.378693 127.937675,159.466492 
	C129.337296,165.019867 127.257721,167.864960 121.533554,168.039215 
	C114.548683,168.251846 107.540245,167.812042 100.565193,168.143097 
	C98.752472,168.229141 97.026138,170.135376 95.260132,171.205582 
	C96.898651,172.462769 98.483391,174.714127 100.184929,174.806168 
	C107.812408,175.218796 115.483505,175.274506 123.119087,174.967392 
	C131.477005,174.631195 136.454712,168.335968 135.128799,160.039841 
	C133.140732,147.600586 125.428535,140.187180 113.548286,137.269470 
	C101.820145,134.389069 94.945473,126.932396 91.137840,115.058777 
M68.708549,79.245033 
	C67.130951,83.075836 64.900299,86.772728 64.082779,90.759399 
	C59.139412,114.865860 68.483749,134.351578 84.592033,151.374146 
	C85.442398,152.272781 87.990517,151.564835 89.748268,151.604828 
	C89.541183,149.829117 89.912300,147.666916 89.027954,146.343918 
	C84.976685,140.283173 79.991447,134.786331 76.426880,128.474121 
	C70.289848,117.606590 67.735138,105.717873 70.629463,93.332214 
	C76.526680,68.096428 103.155235,54.630730 128.250275,63.895893 
	C130.657150,64.784515 133.542633,66.606392 134.927689,62.766285 
	C136.234085,59.144234 133.148453,58.255749 130.666870,57.313614 
	C119.166847,52.947617 107.533287,52.845570 95.909592,56.666138 
	C84.185829,60.519588 75.464493,68.182800 68.708549,79.245033 
M152.698532,145.160797 
	C159.407700,133.952271 163.013428,121.770241 163.392380,108.764099 
	C163.540726,103.672585 162.793381,98.512451 161.960495,93.465012 
	C161.754547,92.216965 159.622284,91.286774 158.375534,90.210472 
	C157.525360,91.573235 156.245255,92.846313 155.937347,94.322205 
	C155.578568,96.042000 156.222122,97.943970 156.164978,99.758507 
	C155.966965,106.045525 156.173950,112.405190 155.266418,118.596428 
	C153.776794,128.758774 149.565277,137.929504 143.627380,146.374542 
	C142.670898,147.734879 143.435623,150.305466 143.404709,152.316605 
	C145.334320,151.641647 147.518188,151.323441 149.116852,150.184128 
	C150.512375,149.189590 151.248703,147.270096 152.698532,145.160797 
M109.663292,209.471741 
	C113.136826,209.471359 116.658356,209.815063 120.065643,209.339783 
	C122.065659,209.060806 123.883896,207.478653 125.783897,206.482681 
	C125.551247,205.780411 125.318604,205.078156 125.085960,204.375885 
	C118.080276,204.375885 111.074593,204.375885 104.046005,204.375885 
	C104.137825,208.791397 104.137825,208.791397 109.663292,209.471741 
M172.990860,127.644157 
	C173.183655,128.572433 173.113693,130.122009 173.610245,130.332016 
	C178.144058,132.249405 182.751648,134.006744 187.412964,135.589096 
	C187.964188,135.776230 189.320480,134.794617 189.659363,134.058289 
	C189.983063,133.354950 189.740982,132.076584 189.265518,131.380081 
	C187.929901,129.423584 175.921585,126.205490 172.990860,127.644157 
M172.974533,53.651505 
	C169.645615,56.327515 166.190369,58.867397 163.067719,61.765659 
	C162.175568,62.593704 162.247757,64.460754 161.877747,65.851364 
	C163.331192,65.860359 165.189209,66.449867 166.163269,65.771011 
	C169.257462,63.614555 172.127045,61.096794 174.882263,58.504818 
	C177.254807,56.272846 177.390320,54.247501 172.974533,53.651505 
M98.058235,32.322495 
	C98.605568,35.245003 98.888229,38.255138 99.814278,41.052269 
	C100.262970,42.407597 101.918182,43.363487 103.027161,44.500217 
	C103.688438,42.992523 104.965561,41.450344 104.883469,39.984272 
	C104.709724,36.881359 104.052483,33.748837 103.137970,30.768238 
	C102.687584,29.300331 101.223221,28.143532 100.217705,26.845949 
	C99.475182,28.380053 98.732666,29.914158 98.058235,32.322495 
M65.749191,62.592999 
	C62.584236,59.911549 59.533039,57.073002 56.182991,54.647163 
	C55.214500,53.945866 53.387669,54.429913 51.954342,54.370541 
	C52.308495,55.773182 52.220268,57.619797 53.099297,58.495663 
	C55.793667,61.180328 58.702332,63.718727 61.825672,65.884186 
	C64.790520,67.939743 66.545776,66.984138 65.749191,62.592999 
M185.529510,83.030724 
	C185.990295,82.841537 186.600433,82.778282 186.885147,82.440628 
	C187.926575,81.205521 188.859619,79.879013 189.833481,78.586922 
	C188.257660,78.254066 186.545486,77.358398 185.133224,77.700584 
	C181.755402,78.519005 178.412247,79.699066 175.282913,81.206139 
	C174.186829,81.734016 173.756805,83.644882 173.022614,84.924210 
	C174.284866,85.323738 175.670715,86.267845 176.784927,86.014999 
	C179.521774,85.393944 182.133545,84.221718 185.529510,83.030724 
M147.447983,42.933613 
	C146.452942,44.661110 145.218979,46.303246 144.559052,48.150467 
	C144.204620,49.142570 144.836151,50.486916 145.022797,51.672318 
	C146.340942,51.360813 148.310730,51.486225 148.863602,50.661633 
	C151.167633,47.225140 153.173996,43.565304 154.984085,39.838997 
	C155.408661,38.964970 154.640610,37.511600 154.421234,36.324772 
	C153.142960,36.735577 151.506714,36.793098 150.670639,37.640297 
	C149.428268,38.899174 148.751938,40.716663 147.447983,42.933613 
M129.728836,32.234493 
	C129.122131,30.449907 128.515427,28.665321 127.908714,26.880733 
	C126.700600,28.345940 124.902016,29.638372 124.411827,31.313646 
	C123.495117,34.446594 123.131302,37.792023 122.978836,41.069584 
	C122.927498,42.173080 124.215088,43.338860 124.890739,44.476170 
	C125.912384,43.593563 127.508232,42.887104 127.843582,41.793957 
	C128.707596,38.977528 129.013763,35.989971 129.728836,32.234493 
M47.703003,133.155411 
	C49.567165,132.444458 51.572094,131.960678 53.237408,130.928802 
	C54.098526,130.395233 55.022331,128.604019 54.718437,127.895241 
	C54.344055,127.022049 52.508389,125.982140 51.672264,126.234344 
	C47.547401,127.478500 43.485348,128.993454 39.546841,130.741211 
	C38.738407,131.099976 37.973625,133.049118 38.255188,133.920639 
	C38.499668,134.677383 40.332687,135.470230 41.322948,135.319962 
	C43.258789,135.026154 45.096432,134.085327 47.703003,133.155411 
M60.948246,147.228027 
	C58.403847,149.378036 55.674419,151.353516 53.403419,153.761383 
	C52.455917,154.765976 52.483761,156.690475 52.068119,158.196701 
	C53.671093,157.992203 55.614552,158.290344 56.808296,157.481705 
	C59.547573,155.626160 62.068066,153.372711 64.372467,150.986359 
	C65.316429,150.008820 65.472984,148.270920 65.987747,146.878922 
	C64.513573,146.861908 63.039406,146.844894 60.948246,147.228027 
M38.013569,80.203613 
	C42.771057,82.328621 47.502300,84.521484 52.355549,86.398949 
	C52.627777,86.504257 53.905582,84.010139 54.715359,82.725899 
	C49.521893,80.935616 44.335022,79.124741 39.104889,77.448906 
	C38.938343,77.395538 38.327278,78.729477 38.013569,80.203613 
M173.532440,152.984222 
	C170.995560,150.877594 168.579849,148.589890 165.853973,146.765671 
	C164.939514,146.153687 163.234863,146.722534 161.891388,146.751648 
	C162.200867,148.013748 162.112457,149.663406 162.893967,150.465759 
	C165.301331,152.937302 167.884964,155.312729 170.720749,157.258133 
	C172.046982,158.167938 174.110092,158.003586 175.839233,158.326080 
	C175.249466,156.696625 174.659698,155.067169 173.532440,152.984222 
M76.954262,47.596298 
	C77.383041,48.303776 77.647537,49.278584 78.274368,49.663761 
	C79.630669,50.497192 81.172592,51.028545 82.638588,51.683453 
	C82.659401,50.070595 83.217590,48.201767 82.595253,46.895252 
	C81.037674,43.625298 79.105652,40.492626 76.964867,37.567612 
	C76.355202,36.734612 74.514648,36.802483 73.238548,36.457237 
	C73.073036,37.639473 72.439247,39.016159 72.833618,39.965908 
	C73.841652,42.393482 75.307709,44.630871 76.954262,47.596298 
M193.606415,104.212120 
	C189.131912,104.087944 184.653351,103.818184 180.185806,103.943001 
	C179.083084,103.973808 178.016220,105.287567 176.932861,106.011559 
	C178.000671,106.966339 179.003891,108.641479 180.148132,108.744072 
	C183.941711,109.084198 187.793137,108.994911 191.608353,108.798340 
	C193.955673,108.677391 195.444748,107.531059 193.606415,104.212120 
M41.542961,108.902550 
	C50.079708,108.902519 50.079708,108.902519 50.685638,105.310417 
	C44.862259,105.310417 39.053398,105.310417 32.911930,105.310417 
	C34.103355,110.629112 37.998055,108.246964 41.542961,108.902550 
M151.244659,82.244164 
	C152.830933,81.617889 154.417221,80.991615 156.003494,80.365341 
	C155.153519,78.351250 154.664200,76.013756 153.284286,74.474846 
	C152.694016,73.816582 149.158752,74.412292 148.877762,75.159142 
	C148.333435,76.605843 149.068130,78.580040 149.440414,80.299339 
	C149.564972,80.874634 150.200134,81.339355 151.244659,82.244164 
z"/>
<path fill="#4AA7D8" opacity="1.000000" stroke="none" 
	d="
M91.250755,115.451324 
	C94.945473,126.932396 101.820145,134.389069 113.548286,137.269470 
	C125.428535,140.187180 133.140732,147.600586 135.128799,160.039841 
	C136.454712,168.335968 131.477005,174.631195 123.119087,174.967392 
	C115.483505,175.274506 107.812408,175.218796 100.184929,174.806168 
	C98.483391,174.714127 96.898651,172.462769 95.260132,171.205582 
	C97.026138,170.135376 98.752472,168.229141 100.565193,168.143097 
	C107.540245,167.812042 114.548683,168.251846 121.533554,168.039215 
	C127.257721,167.864960 129.337296,165.019867 127.937675,159.466492 
	C126.403374,153.378693 123.040413,148.548889 117.065224,145.980301 
	C114.933281,145.063843 112.749725,144.165543 110.500748,143.639130 
	C89.389748,138.697754 80.969170,116.506622 83.105301,99.911430 
	C84.775436,86.936478 95.818176,77.425270 110.739601,76.181496 
	C121.087746,75.318932 130.571716,78.161110 139.001373,84.070488 
	C140.372589,85.031738 140.513992,87.747292 141.223831,89.651978 
	C139.174591,89.657150 136.668686,90.432533 135.154739,89.534897 
	C128.409424,85.535492 121.361862,82.953857 113.455963,83.072563 
	C96.475845,83.327522 86.790077,95.552269 90.394638,112.159325 
	C90.606125,113.133675 90.888474,114.092644 91.250755,115.451324 
z"/>
<path fill="#F25D2C" opacity="1.000000" stroke="none" 
	d="
M68.866882,78.913902 
	C75.464493,68.182800 84.185829,60.519588 95.909592,56.666138 
	C107.533287,52.845570 119.166847,52.947617 130.666870,57.313614 
	C133.148453,58.255749 136.234085,59.144234 134.927689,62.766285 
	C133.542633,66.606392 130.657150,64.784515 128.250275,63.895893 
	C103.155235,54.630730 76.526680,68.096428 70.629463,93.332214 
	C67.735138,105.717873 70.289848,117.606590 76.426880,128.474121 
	C79.991447,134.786331 84.976685,140.283173 89.027954,146.343918 
	C89.912300,147.666916 89.541183,149.829117 89.748268,151.604828 
	C87.990517,151.564835 85.442398,152.272781 84.592033,151.374146 
	C68.483749,134.351578 59.139412,114.865860 64.082779,90.759399 
	C64.900299,86.772728 67.130951,83.075836 68.866882,78.913902 
z"/>
<path fill="#F25D2C" opacity="1.000000" stroke="none" 
	d="
M152.487396,145.460037 
	C151.248703,147.270096 150.512375,149.189590 149.116852,150.184128 
	C147.518188,151.323441 145.334320,151.641647 143.404709,152.316605 
	C143.435623,150.305466 142.670898,147.734879 143.627380,146.374542 
	C149.565277,137.929504 153.776794,128.758774 155.266418,118.596428 
	C156.173950,112.405190 155.966965,106.045525 156.164978,99.758507 
	C156.222122,97.943970 155.578568,96.042000 155.937347,94.322205 
	C156.245255,92.846313 157.525360,91.573235 158.375534,90.210472 
	C159.622284,91.286774 161.754547,92.216965 161.960495,93.465012 
	C162.793381,98.512451 163.540726,103.672585 163.392380,108.764099 
	C163.013428,121.770241 159.407700,133.952271 152.487396,145.460037 
z"/>
<path fill="#15305A" opacity="1.000000" stroke="none" 
	d="
M95.611618,193.879791 
	C96.197899,193.259018 96.784180,192.638229 98.006744,192.343475 
	C104.379974,192.780746 110.118507,193.029343 115.853424,192.963257 
	C121.216057,192.901459 126.574837,192.505905 131.935318,192.257233 
	C132.388351,192.603409 132.841370,192.949585 133.179718,193.647400 
	C133.321960,194.339584 133.578873,194.680145 133.835785,195.020691 
	C133.876312,195.183273 133.916840,195.345871 133.462143,195.821106 
	C120.436836,196.165756 107.906776,196.197769 95.376709,196.229767 
	C95.289093,196.043625 95.201477,195.857468 95.408691,195.323273 
	C95.672882,194.610077 95.642250,194.244934 95.611618,193.879791 
z"/>
<path fill="#15305A" opacity="1.000000" stroke="none" 
	d="
M133.837479,184.021011 
	C133.877625,184.183289 133.917786,184.345581 133.463272,184.820343 
	C120.438469,185.168259 107.908318,185.203720 95.378174,185.239166 
	C95.296494,184.883606 95.214813,184.528061 95.441315,183.834595 
	C95.890488,183.497162 96.031487,183.497650 96.172493,183.498154 
	C95.935066,183.374695 95.697639,183.251251 95.460213,183.127792 
	C95.792587,182.575226 96.124969,182.022675 97.091568,181.613693 
	C104.876373,181.838791 112.027962,182.028183 119.177162,181.961212 
	C123.437172,181.921326 127.693420,181.478821 131.951355,181.217331 
	C132.399139,181.574188 132.846939,181.931030 133.181595,182.643265 
	C133.324799,183.339447 133.581131,183.680222 133.837479,184.021011 
z"/>
<path fill="#132E59" opacity="1.000000" stroke="none" 
	d="
M109.185516,209.471069 
	C104.137825,208.791397 104.137825,208.791397 104.046005,204.375885 
	C111.074593,204.375885 118.080276,204.375885 125.085960,204.375885 
	C125.318604,205.078156 125.551247,205.780411 125.783897,206.482681 
	C123.883896,207.478653 122.065659,209.060806 120.065643,209.339783 
	C116.658356,209.815063 113.136826,209.471359 109.185516,209.471069 
z"/>
<path fill="#49A7D8" opacity="1.000000" stroke="none" 
	d="
M173.166794,127.291130 
	C175.921585,126.205490 187.929901,129.423584 189.265518,131.380081 
	C189.740982,132.076584 189.983063,133.354950 189.659363,134.058289 
	C189.320480,134.794617 187.964188,135.776230 187.412964,135.589096 
	C182.751648,134.006744 178.144058,132.249405 173.610245,130.332016 
	C173.113693,130.122009 173.183655,128.572433 173.166794,127.291130 
z"/>
<path fill="#4CA9D9" opacity="1.000000" stroke="none" 
	d="
M173.287689,53.516945 
	C177.390320,54.247501 177.254807,56.272846 174.882263,58.504818 
	C172.127045,61.096794 169.257462,63.614555 166.163269,65.771011 
	C165.189209,66.449867 163.331192,65.860359 161.877747,65.851364 
	C162.247757,64.460754 162.175568,62.593704 163.067719,61.765659 
	C166.190369,58.867397 169.645615,56.327515 173.287689,53.516945 
z"/>
<path fill="#4BA8D8" opacity="1.000000" stroke="none" 
	d="
M98.024185,31.885380 
	C98.732666,29.914158 99.475182,28.380053 100.217705,26.845951 
	C101.223221,28.143532 102.687584,29.300331 103.137970,30.768238 
	C104.052483,33.748837 104.709724,36.881359 104.883469,39.984272 
	C104.965561,41.450344 103.688438,42.992523 103.027161,44.500221 
	C101.918182,43.363487 100.262970,42.407597 99.814278,41.052269 
	C98.888229,38.255138 98.605568,35.245003 98.024185,31.885380 
z"/>
<path fill="#4CA8D8" opacity="1.000000" stroke="none" 
	d="
M65.942764,62.872864 
	C66.545776,66.984138 64.790520,67.939743 61.825672,65.884186 
	C58.702332,63.718727 55.793667,61.180328 53.099297,58.495663 
	C52.220268,57.619797 52.308495,55.773182 51.954342,54.370541 
	C53.387669,54.429913 55.214500,53.945866 56.182991,54.647163 
	C59.533039,57.073002 62.584236,59.911549 65.942764,62.872864 
z"/>
<path fill="#49A7D8" opacity="1.000000" stroke="none" 
	d="
M185.162567,83.150955 
	C182.133545,84.221718 179.521774,85.393944 176.784927,86.014999 
	C175.670715,86.267845 174.284866,85.323738 173.022614,84.924210 
	C173.756805,83.644882 174.186829,81.734016 175.282913,81.206139 
	C178.412247,79.699066 181.755402,78.519005 185.133224,77.700584 
	C186.545486,77.358398 188.257660,78.254066 189.833481,78.586929 
	C188.859619,79.879013 187.926575,81.205521 186.885147,82.440628 
	C186.600433,82.778282 185.990295,82.841537 185.162567,83.150955 
z"/>
<path fill="#4AA7D8" opacity="1.000000" stroke="none" 
	d="
M147.641342,42.615005 
	C148.751938,40.716663 149.428268,38.899174 150.670639,37.640297 
	C151.506714,36.793098 153.142960,36.735577 154.421234,36.324768 
	C154.640610,37.511600 155.408661,38.964970 154.984085,39.838997 
	C153.173996,43.565304 151.167633,47.225140 148.863602,50.661633 
	C148.310730,51.486225 146.340942,51.360813 145.022797,51.672318 
	C144.836151,50.486916 144.204620,49.142570 144.559052,48.150467 
	C145.218979,46.303246 146.452942,44.661110 147.641342,42.615005 
z"/>
<path fill="#4AA7D8" opacity="1.000000" stroke="none" 
	d="
M129.635834,32.652641 
	C129.013763,35.989971 128.707596,38.977528 127.843582,41.793957 
	C127.508232,42.887104 125.912384,43.593563 124.890739,44.476170 
	C124.215088,43.338860 122.927498,42.173080 122.978836,41.069584 
	C123.131302,37.792023 123.495117,34.446594 124.411827,31.313646 
	C124.902016,29.638372 126.700600,28.345940 127.908714,26.880733 
	C128.515427,28.665321 129.122131,30.449907 129.635834,32.652641 
z"/>
<path fill="#4BA8D8" opacity="1.000000" stroke="none" 
	d="
M47.338867,133.283890 
	C45.096432,134.085327 43.258789,135.026154 41.322948,135.319962 
	C40.332687,135.470230 38.499668,134.677383 38.255188,133.920639 
	C37.973625,133.049118 38.738407,131.099976 39.546841,130.741211 
	C43.485348,128.993454 47.547401,127.478500 51.672264,126.234344 
	C52.508389,125.982140 54.344055,127.022049 54.718437,127.895241 
	C55.022331,128.604019 54.098526,130.395233 53.237408,130.928802 
	C51.572094,131.960678 49.567165,132.444458 47.338867,133.283890 
z"/>
<path fill="#4BA8D8" opacity="1.000000" stroke="none" 
	d="
M61.256741,147.027954 
	C63.039406,146.844894 64.513573,146.861908 65.987747,146.878922 
	C65.472984,148.270920 65.316429,150.008820 64.372467,150.986359 
	C62.068066,153.372711 59.547573,155.626160 56.808296,157.481705 
	C55.614552,158.290344 53.671093,157.992203 52.068123,158.196701 
	C52.483761,156.690475 52.455917,154.765976 53.403419,153.761383 
	C55.674419,151.353516 58.403847,149.378036 61.256741,147.027954 
z"/>
<path fill="#4BA8D8" opacity="1.000000" stroke="none" 
	d="
M37.968506,79.810150 
	C38.327278,78.729477 38.938343,77.395538 39.104889,77.448906 
	C44.335022,79.124741 49.521893,80.935616 54.715355,82.725899 
	C53.905582,84.010139 52.627777,86.504257 52.355549,86.398949 
	C47.502300,84.521484 42.771057,82.328621 37.968506,79.810150 
z"/>
<path fill="#48A7D8" opacity="1.000000" stroke="none" 
	d="
M173.801178,153.210968 
	C174.659698,155.067169 175.249466,156.696625 175.839233,158.326080 
	C174.110092,158.003586 172.046982,158.167938 170.720749,157.258133 
	C167.884964,155.312729 165.301331,152.937302 162.893967,150.465759 
	C162.112457,149.663406 162.200867,148.013748 161.891388,146.751648 
	C163.234863,146.722534 164.939514,146.153687 165.853973,146.765671 
	C168.579849,148.589890 170.995560,150.877594 173.801178,153.210968 
z"/>
<path fill="#49A7D8" opacity="1.000000" stroke="none" 
	d="
M76.772408,47.270317 
	C75.307709,44.630871 73.841652,42.393482 72.833618,39.965908 
	C72.439247,39.016159 73.073036,37.639473 73.238548,36.457237 
	C74.514648,36.802483 76.355202,36.734612 76.964867,37.567612 
	C79.105652,40.492626 81.037674,43.625298 82.595253,46.895252 
	C83.217590,48.201767 82.659401,50.070595 82.638588,51.683453 
	C81.172592,51.028545 79.630669,50.497192 78.274368,49.663761 
	C77.647537,49.278584 77.383041,48.303776 76.772408,47.270317 
z"/>
<path fill="#4CA8D8" opacity="1.000000" stroke="none" 
	d="
M193.884064,104.524773 
	C195.444748,107.531059 193.955673,108.677391 191.608353,108.798340 
	C187.793137,108.994911 183.941711,109.084198 180.148132,108.744072 
	C179.003891,108.641479 178.000671,106.966339 176.932861,106.011551 
	C178.016220,105.287567 179.083084,103.973808 180.185806,103.943001 
	C184.653351,103.818184 189.131912,104.087944 193.884064,104.524773 
z"/>
<path fill="#2D476B" opacity="1.000000" stroke="none" 
	d="
M95.523682,185.619080 
	C107.908318,185.203720 120.438469,185.168259 133.365448,185.051239 
	C132.277435,185.937164 130.813248,187.703430 129.304352,187.742493 
	C119.522217,187.995712 109.729103,187.948746 99.943016,187.789719 
	C98.509087,187.766418 97.093346,186.623718 95.523682,185.619080 
z"/>
<path fill="#2B466C" opacity="1.000000" stroke="none" 
	d="
M95.520920,196.609131 
	C107.906776,196.197769 120.436836,196.165756 133.363556,196.052292 
	C132.268356,196.933655 130.797089,198.690979 129.281342,198.730209 
	C119.512329,198.983063 109.732338,198.936554 99.959381,198.777390 
	C98.518639,198.753937 97.096092,197.612610 95.520920,196.609131 
z"/>
<path fill="#51AADA" opacity="1.000000" stroke="none" 
	d="
M41.075390,108.902496 
	C37.998055,108.246964 34.103355,110.629112 32.911930,105.310417 
	C39.053398,105.310417 44.862259,105.310417 50.685638,105.310417 
	C50.079708,108.902519 50.079708,108.902519 41.075390,108.902496 
z"/>
<path fill="#F25D2B" opacity="1.000000" stroke="none" 
	d="
M150.923279,82.049393 
	C150.200134,81.339355 149.564972,80.874634 149.440414,80.299339 
	C149.068130,78.580040 148.333435,76.605843 148.877762,75.159142 
	C149.158752,74.412292 152.694016,73.816582 153.284286,74.474846 
	C154.664200,76.013756 155.153519,78.351250 156.003494,80.365341 
	C154.417221,80.991615 152.830933,81.617889 150.923279,82.049393 
z"/>
<path fill="#00134C" opacity="1.000000" stroke="none" 
	d="
M131.506500,181.069595 
	C127.693420,181.478821 123.437172,181.921326 119.177162,181.961212 
	C112.027962,182.028183 104.876373,181.838791 97.400787,181.511765 
	C108.404404,181.151459 119.733017,181.036652 131.506500,181.069595 
z"/>
<path fill="#00104A" opacity="1.000000" stroke="none" 
	d="
M131.492325,192.107727 
	C126.574837,192.505905 121.216057,192.901459 115.853424,192.963257 
	C110.118507,193.029343 104.379974,192.780746 98.340279,192.388580 
	C109.041466,192.057831 120.045403,192.008011 131.492325,192.107727 
z"/>
<path fill="#2D476B" opacity="1.000000" stroke="none" 
	d="
M133.909912,183.804901 
	C133.581131,183.680222 133.324799,183.339447 133.291138,182.928406 
	C133.826431,183.001389 133.982605,183.244934 133.909912,183.804901 
z"/>
<path fill="#2B466C" opacity="1.000000" stroke="none" 
	d="
M95.435928,193.945984 
	C95.642250,194.244934 95.672882,194.610077 95.440643,195.016296 
	C95.205261,194.708984 95.232750,194.360580 95.435928,193.945984 
z"/>
<path fill="#2B466C" opacity="1.000000" stroke="none" 
	d="
M133.907867,194.804352 
	C133.578873,194.680145 133.321960,194.339584 133.287918,193.928131 
	C133.823318,194.000580 133.979706,194.244186 133.907867,194.804352 
z"/>
<path fill="#2D476B" opacity="1.000000" stroke="none" 
	d="
M95.488564,183.138672 
	C95.697639,183.251251 95.935066,183.374695 96.172493,183.498154 
	C96.031487,183.497650 95.890488,183.497162 95.617226,183.316406 
	C95.484970,183.136139 95.516914,183.149567 95.488564,183.138672 
z"/>
</svg>